<?xml version="1.0" encoding="iso-8859-1"?>
<!-- Generator: Adobe Illustrator 19.0.0, SVG Export Plug-In . SVG Version: 6.00 Build 0)  -->
<svg version="1.1" id="Layer_1" xmlns="http://www.w3.org/2000/svg" xmlns:xlink="http://www.w3.org/1999/xlink" x="0px" y="0px"
	 viewBox="0 0 512 512" style="enable-background:new 0 0 512 512;" xml:space="preserve">
<path style="fill:#EDEDED;" d="M467.478,489.739H44.522c-12.295,0-22.261-9.966-22.261-22.261V44.522
	c0-12.295,9.966-22.261,22.261-22.261h422.957c12.295,0,22.261,9.966,22.261,22.261v422.957
	C489.739,479.773,479.773,489.739,467.478,489.739z"/>
<path style="fill:#777777;" d="M509.555,487.294l-22.261,22.261c-1.629,1.629-3.767,2.445-5.902,2.445
	c-2.136,0-4.273-0.815-5.902-2.445c-3.26-3.26-3.26-8.546,0-11.805l8.011-8.011H28.502l8.011,8.011c3.26,3.26,3.26,8.546,0,11.805
	c-1.631,1.631-3.767,2.445-5.904,2.445c-2.137,0-4.273-0.815-5.902-2.445L2.445,487.294c-3.26-3.26-3.26-8.546,0-11.805
	l22.261-22.261c3.26-3.26,8.546-3.26,11.805,0c3.26,3.26,3.26,8.546,0,11.805l-8.009,8.011h454.998l-8.011-8.011
	c-3.26-3.26-3.26-8.546,0-11.805c3.26-3.26,8.546-3.26,11.805,0l22.261,22.261C512.815,478.748,512.815,484.035,509.555,487.294z"/>
<path style="fill:#56889B;" d="M261.565,434.087h-11.13c-12.295,0-22.261-9.966-22.261-22.261V22.261
	C228.174,9.966,238.14,0,250.435,0h11.13c12.295,0,22.261,9.966,22.261,22.261v389.565
	C283.826,424.121,273.86,434.087,261.565,434.087z"/>
<path style="fill:#98C7E5;" d="M77.913,434.087h-11.13c-12.295,0-22.261-9.966-22.261-22.261v-89.043
	c0-12.295,9.966-22.261,22.261-22.261h11.13c12.295,0,22.261,9.966,22.261,22.261v89.043
	C100.174,424.121,90.208,434.087,77.913,434.087z M467.478,411.826v-33.391c0-12.295-9.966-22.261-22.261-22.261h-11.13
	c-12.295,0-22.261,9.966-22.261,22.261v33.391c0,12.295,9.966,22.261,22.261,22.261h11.13
	C457.512,434.087,467.478,424.121,467.478,411.826z"/>
<path style="fill:#73A4BC;" d="M169.739,434.087h-11.13c-12.295,0-22.261-9.966-22.261-22.261V178.087
	c0-12.295,9.966-22.261,22.261-22.261h11.13c12.295,0,22.261,9.966,22.261,22.261v233.739
	C192,424.121,182.034,434.087,169.739,434.087z M375.652,411.826V278.261c0-12.295-9.966-22.261-22.261-22.261h-11.13
	C329.966,256,320,265.966,320,278.261v133.565c0,12.295,9.966,22.261,22.261,22.261h11.13
	C365.686,434.087,375.652,424.121,375.652,411.826z"/>
<g>
</g>
<g>
</g>
<g>
</g>
<g>
</g>
<g>
</g>
<g>
</g>
<g>
</g>
<g>
</g>
<g>
</g>
<g>
</g>
<g>
</g>
<g>
</g>
<g>
</g>
<g>
</g>
<g>
</g>
</svg>
